<svg width="20" height="20" viewBox="0 0 20 20" fill="none" xmlns="http://www.w3.org/2000/svg">
<path d="M16.9202 4.01319C16.5204 3.60551 16.0456 3.28212 15.5231 3.06147C15.0006 2.84083 14.4406 2.72726 13.875 2.72726C13.3094 2.72726 12.7494 2.84083 12.2268 3.06147C11.7043 3.28212 11.2296 3.60551 10.8298 4.01319L9.99997 4.85886L9.17017 4.01319C8.36252 3.1901 7.26713 2.72769 6.12495 2.72769C4.98277 2.72769 3.88737 3.1901 3.07973 4.01319C2.27209 4.83628 1.81836 5.95263 1.81836 7.11665C1.81836 8.28068 2.27209 9.39703 3.07973 10.2201L3.90953 11.0658L9.99997 17.2727L16.0904 11.0658L16.9202 10.2201C17.3202 9.81263 17.6376 9.32882 17.8541 8.79632C18.0706 8.26381 18.182 7.69306 18.182 7.11665C18.182 6.54025 18.0706 5.96949 17.8541 5.43699C17.6376 4.90449 17.3202 4.42067 16.9202 4.01319Z" stroke="#767676" stroke-width="1.5" stroke-linecap="round" stroke-linejoin="round"/>
</svg>
